<?xml version="1.0" encoding="UTF-8"?>
<!DOCTYPE svg PUBLIC "-//W3C//DTD SVG 1.1//EN" "http://www.w3.org/Graphics/SVG/1.1/DTD/svg11.dtd">
<!-- Creator: CorelDRAW X7 -->
<svg xmlns="http://www.w3.org/2000/svg" xml:space="preserve" width="21.6746mm" height="21.6746mm" version="1.1" style="shape-rendering:geometricPrecision; text-rendering:geometricPrecision; image-rendering:optimizeQuality; fill-rule:evenodd; clip-rule:evenodd"
viewBox="0 0 2167 2167"
 xmlns:xlink="http://www.w3.org/1999/xlink">
 <defs>
  <style type="text/css">
   <![CDATA[
    .fil0 {fill:#ABABAB}
   ]]>
  </style>
 </defs>
 <g id="Layer_x0020_1">
  <metadata id="CorelCorpID_0Corel-Layer"/>
  <path class="fil0" d="M1084 0c-599,0 -1084,485 -1084,1084 0,598 485,1083 1084,1083 598,0 1083,-485 1083,-1083 0,-599 -485,-1084 -1083,-1084zm247 732c42,-41 43,-108 2,-149 -41,-42 -107,-43 -149,-2l-430 417c-42,40 -43,107 -2,149l421 434c41,41 108,42 149,2 42,-41 43,-108 2,-150l-347 -358 354 -343z"/>
 </g>
</svg>
